<svg width="100%" height="100%" viewBox="0 0 328 284" version="1.1" xmlns="http://www.w3.org/2000/svg" xmlns:xlink="http://www.w3.org/1999/xlink" xml:space="preserve" xmlns:serif="http://www.serif.com/" style="fill-rule:evenodd;clip-rule:evenodd;stroke-linejoin:round;stroke-miterlimit:2;"><path d="M96.367,205.433l135.015,0c12.588,0 -10.619,-55.25 -10.619,-55.25c-1.375,-3.287 -4.68,-5.395 -7.842,-6.69l-21.35,-9.83l-10.258,-8.649l-16.482,16.392l-0.012,0l7.111,47.547c0.023,0.165 -0.016,0.329 -0.114,0.464l-7.435,10.178c-0.12,0.162 -0.309,0.258 -0.51,0.258c-0.201,0 -0.39,-0.096 -0.507,-0.258l-7.438,-10.178c-0.098,-0.135 -0.139,-0.299 -0.113,-0.464l7.111,-47.547l-0.011,0l-16.481,-16.392l-10.257,8.649l-21.35,9.83c-3.158,1.295 -6.263,3.264 -7.843,6.69c0.003,0 -23.202,55.25 -10.615,55.25Z" style="fill:#eec278;fill-rule:nonzero;"/><path d="M163.875,129.409c16.285,0 38.131,-20.346 38.501,-54.462c0.236,-23.674 -11.038,-37.841 -38.501,-37.841c-27.464,0 -38.742,14.167 -38.501,37.842c0.369,34.116 19.442,54.461 38.501,54.461Zm-7.74,-44.954c19.91,2.121 37.271,-25.726 36.988,-0.793c-0.168,14.924 -14.012,37.462 -29.245,37.462c-15.988,0 -27.021,-18.731 -29.247,-37.454c-2.413,-20.306 34.859,-15.679 21.504,0.785Z" style="fill:#eec278;fill-rule:nonzero;"/><path d="M312.75,0l-297.75,0c-8.285,0 -15,6.715 -15,15l0,212.539c0,8.285 6.716,15 15,15l297.75,0c8.284,0 15,-6.715 15,-15l0,-212.539c0,-8.285 -6.716,-15 -15,-15Zm-7.5,220.039l-282.75,0l0,-197.539l282.75,0l0,197.539Z" style="fill:#eec278;fill-rule:nonzero;"/><path d="M0,266.394c0,4.576 3.709,8.287 8.285,8.287l79.775,0l0,-16.573l-79.775,0c-4.575,0 -8.285,3.71 -8.285,8.286Z" style="fill:#eec278;fill-rule:nonzero;"/><path d="M319.464,258.108l-199.349,0l0,16.574l199.349,0c4.576,0 8.286,-3.711 8.286,-8.287c0,-4.578 -3.71,-8.287 -8.286,-8.287Z" style="fill:#eec278;fill-rule:nonzero;"/><path d="M104.09,249.423c-5.495,0 -9.965,4.471 -9.965,9.964l0,14.013c0,5.494 4.47,9.965 9.965,9.965c5.493,0 9.962,-4.471 9.962,-9.965l0,-14.012c0,-5.494 -4.469,-9.965 -9.963,-9.965Z" style="fill:#eec278;fill-rule:nonzero;"/></svg>