<?xml version="1.0" encoding="UTF-8" standalone="no"?><!DOCTYPE svg PUBLIC "-//W3C//DTD SVG 1.1//EN" "http://www.w3.org/Graphics/SVG/1.1/DTD/svg11.dtd"><svg width="100%" height="100%" viewBox="0 0 384 314" version="1.1" xmlns="http://www.w3.org/2000/svg" xmlns:xlink="http://www.w3.org/1999/xlink" xml:space="preserve" xmlns:serif="http://www.serif.com/" style="fill-rule:evenodd;clip-rule:evenodd;stroke-linejoin:round;stroke-miterlimit:2;"><rect x="42.272" y="68.468" width="80.104" height="22.813" style="fill:#edc1c0;"/><rect x="42.272" y="108.671" width="118.863" height="22.813" style="fill:#edc1c0;"/><rect x="42.272" y="148.868" width="118.863" height="22.813" style="fill:#edc1c0;"/><rect x="42.272" y="189.065" width="118.863" height="22.813" style="fill:#edc1c0;"/><path d="M292.139,0l-19.684,0l-22.813,0l-249.642,0l0,280.349l249.643,0l0,33.4l32.654,-18.266l32.655,18.266l0,-33.4l69.048,0l0,-280.349l-69.048,0l-22.813,0Zm-111.545,257.537l-157.781,0l0,-234.724l157.781,0l0,234.724Zm69.049,-189.067l-26.776,0l0,22.813l26.776,0l0,17.385l-26.776,0l0,22.813l26.776,0l0,17.386l-26.776,0l0,22.813l26.776,0l0,17.385l-26.776,0l0,22.813l26.776,0l0,45.657l-46.236,0l0,-234.722l46.236,0l0,45.657Zm42.497,206.379l-9.842,-5.506l-9.842,5.505l0,-252.035l19.684,0l0,252.036Zm69.047,-17.312l-46.235,0l0,-45.657l26.775,0l0,-22.813l-26.775,0l0,-17.386l26.775,0l0,-22.813l-26.775,0l0,-17.385l26.775,0l0,-22.813l-26.775,0l0,-17.386l26.775,0l0,-22.813l-26.775,0l0,-45.658l46.235,0l0,234.724Z" style="fill:#eec278;fill-rule:nonzero;"/></svg>