<?xml version="1.0" encoding="UTF-8" standalone="no"?>
<!DOCTYPE svg PUBLIC "-//W3C//DTD SVG 1.1//EN" "http://www.w3.org/Graphics/SVG/1.1/DTD/svg11.dtd">
<svg width="100%" height="100%" viewBox="0 0 64 64" version="1.1" xmlns="http://www.w3.org/2000/svg" xmlns:xlink="http://www.w3.org/1999/xlink" xml:space="preserve" xmlns:serif="http://www.serif.com/" style="fill-rule:evenodd;clip-rule:evenodd;stroke-linecap:round;stroke-linejoin:round;stroke-miterlimit:1.5;">
    <g transform="matrix(0.942047,-0.483379,0.511307,0.996476,-14.5073,15.5809)">
        <path d="M32,7C46.074,7 57.5,18.202 57.5,32C57.5,45.798 46.074,57 32,57C17.926,57 6.5,45.798 6.5,32C6.5,18.202 17.926,7 32,7ZM50.741,25.613L53.126,20.147L52.7,19.927L43.235,21.421C42.028,20.096 40.433,18.896 38.427,17.862C32.326,14.717 26.843,15.401 24.402,20.137C22.907,23.038 23.535,26.116 25.542,28.717L18.359,29.766C17.325,31.772 17.098,34.517 19.191,37.162C15.813,36.068 13.616,36.664 12.758,38.328C11.328,41.101 14.057,44.398 21.865,48.422C28.862,52.029 36.908,52.45 39.393,47.629C41.262,44.002 39.416,40.459 33.849,37.535L26.831,33.864C24.655,32.742 23.792,31.379 24.43,30.142L26.431,29.715C27.597,30.91 29.044,31.98 30.708,32.838C36.809,35.983 42.292,35.299 44.711,30.605C46.075,27.96 45.871,25.317 44.355,22.916L50.521,26.04L50.741,25.613ZM23.614,40.629L30.951,44.519C32.38,45.31 32.752,46.474 32.136,47.668C31.058,49.759 27.107,49.882 23.096,47.815C18.531,45.462 17.147,42.804 18.378,40.415C18.95,39.305 19.623,38.734 20.612,38.596C21.441,39.293 22.399,39.949 23.614,40.629ZM31.214,31.857C29.379,30.911 29.659,29.111 32.21,24.162C34.695,19.341 36.087,17.898 37.922,18.844C39.756,19.789 39.388,21.76 36.903,26.581C34.352,31.53 33.049,32.802 31.214,31.857Z" style="fill:rgb(238,194,120);"/>
    </g>
    <g transform="matrix(1.0566,0,0,1.03571,-4.45283,-1.14286)">
        <ellipse cx="34.5" cy="32" rx="26.5" ry="28" style="fill:none;stroke:rgb(171,129,68);stroke-width:0.91px;"/>
    </g>
</svg>
