<?xml version="1.0" encoding="UTF-8" standalone="no"?>
<!DOCTYPE svg PUBLIC "-//W3C//DTD SVG 1.1//EN" "http://www.w3.org/Graphics/SVG/1.1/DTD/svg11.dtd">
<svg width="100%" height="100%" viewBox="0 0 64 64" version="1.1" xmlns="http://www.w3.org/2000/svg" xmlns:xlink="http://www.w3.org/1999/xlink" xml:space="preserve" xmlns:serif="http://www.serif.com/" style="fill-rule:evenodd;clip-rule:evenodd;stroke-linejoin:round;stroke-miterlimit:2;">
    <g transform="matrix(0.125,0,0,0.125,32,32)">
        <g transform="matrix(1,0,0,1,-256,-256)">
            <path d="M223.75,130.75L154.62,15.54C148.845,5.911 138.408,0 127.18,0L16.03,0C3.08,0 -4.5,14.57 2.92,25.18L114.19,184.14C143.91,156.37 181.71,137.31 223.75,130.75ZM495.97,0L384.82,0C373.58,0 363.16,5.9 357.38,15.54L288.25,130.75C330.29,137.31 368.09,156.37 397.81,184.13L509.08,25.18C516.5,14.57 508.92,0 495.97,0ZM256,160C158.8,160 80,238.8 80,336C80,433.2 158.8,512 256,512C353.2,512 432,433.2 432,336C432,238.8 353.2,160 256,160ZM348.52,317.26L310.59,354.22L319.56,406.44C321.16,415.8 311.3,422.95 302.91,418.53L256,393.88L209.1,418.53C200.7,422.98 190.85,415.79 192.45,406.44L201.42,354.22L163.49,317.26C156.67,310.62 160.44,299.03 169.84,297.67L222.27,290.03L245.7,242.51C247.81,238.23 251.89,236.12 255.98,236.12C260.09,236.12 264.2,238.26 266.31,242.51L289.74,290.03L342.17,297.67C351.57,299.03 355.34,310.62 348.52,317.26Z" style="fill:rgb(238,194,120);fill-rule:nonzero;"/>
        </g>
    </g>
</svg>
