<?xml version="1.0" encoding="UTF-8" standalone="no"?><!DOCTYPE svg PUBLIC "-//W3C//DTD SVG 1.1//EN" "http://www.w3.org/Graphics/SVG/1.1/DTD/svg11.dtd"><svg width="100%" height="100%" viewBox="0 0 372 204" version="1.1" xmlns="http://www.w3.org/2000/svg" xmlns:xlink="http://www.w3.org/1999/xlink" xml:space="preserve" xmlns:serif="http://www.serif.com/" style="fill-rule:evenodd;clip-rule:evenodd;stroke-linecap:round;stroke-linejoin:round;stroke-miterlimit:1.5;"><path d="M366.375,137.339c5.269,-0.691 4.5,2.25 4.5,2.25l0,54.75c-233.129,30.593 -370.5,-25.5 -370.5,-25.5l0,-53.25c0,0 2.497,-4.802 5.25,-3.75c24.125,9.217 151.501,52.96 360.75,25.5Z" style="fill:#edc1c0;stroke:#000;stroke-width:0.75px;"/><path d="M89.739,158.47c0,0 43.133,-14.264 97.5,-9.881c54.368,4.384 88.5,20.25 88.5,20.25l31.5,-45c8.939,-21.609 17.552,-44.592 -23.25,-48.75c17.815,-22.132 -0.972,-34.183 -22.5,-50.25c-20.567,-23.533 -32.25,-27 -74.25,-8.25c-18,-18.75 -10.284,-20.877 -47.25,-8.25c-17.558,-6.249 -31.709,-0.324 -40.5,24.75c-17.967,-4.234 -30.861,7.345 -39,33.75c-5.003,16.821 -10.136,26.667 18,48c-16.786,10.521 1.62,31.371 11.25,43.631Z" style="fill:#dd8c8b;stroke:#000;stroke-width:0.75px;"/></svg>