<?xml version="1.0" encoding="UTF-8" standalone="no"?><!DOCTYPE svg PUBLIC "-//W3C//DTD SVG 1.1//EN" "http://www.w3.org/Graphics/SVG/1.1/DTD/svg11.dtd"><svg width="100%" height="100%" viewBox="0 0 448 512" version="1.1" xmlns="http://www.w3.org/2000/svg" xmlns:xlink="http://www.w3.org/1999/xlink" xml:space="preserve" xmlns:serif="http://www.serif.com/" style="fill-rule:evenodd;clip-rule:evenodd;stroke-linejoin:round;stroke-miterlimit:2;"><path d="M400,32l-352,0c-26.5,0 -48,21.5 -48,48l0,352c0,26.5 21.5,48 48,48l352,0c26.5,0 48,-21.5 48,-48l0,-352c0,-26.5 -21.5,-48 -48,-48Zm-16.2,149.6c-1.4,31.1 -23.2,73.8 -65.3,127.9c-43.5,56.5 -80.3,84.8 -110.4,84.8c-18.7,0 -34.4,-17.2 -47.3,-51.6c-25.2,-92.3 -35.9,-146.4 -56.7,-146.4c-2.4,0 -10.8,5 -25.1,15.1l-15,-19.4c36.9,-32.4 72.1,-68.4 94.1,-70.4c24.9,-2.4 40.2,14.6 46,51.1c20.5,129.6 29.6,149.2 66.8,90.5c13.4,-21.2 20.6,-37.2 21.5,-48.3c3.4,-32.8 -25.6,-30.6 -45.2,-22.2c15.7,-51.5 45.8,-76.5 90.1,-75.1c32.9,1 48.4,22.4 46.5,64Z" style="fill:#eec278;fill-rule:nonzero;"/></svg>