<?xml version="1.0" encoding="UTF-8" standalone="no"?>
<!DOCTYPE svg PUBLIC "-//W3C//DTD SVG 1.1//EN" "http://www.w3.org/Graphics/SVG/1.1/DTD/svg11.dtd">
<svg width="100%" height="100%" viewBox="0 0 54 72" version="1.1" xmlns="http://www.w3.org/2000/svg" xmlns:xlink="http://www.w3.org/1999/xlink" xml:space="preserve" xmlns:serif="http://www.serif.com/" style="fill-rule:evenodd;clip-rule:evenodd;stroke-linejoin:round;stroke-miterlimit:2;">
    <g transform="matrix(1,0,0,1,-23.1847,-13.8)">
        <path d="M24.1,85L75.9,85C76.5,85 76.9,84.6 76.9,84L76.9,14.5C76.9,14.4 76.8,14.4 76.8,14.3C76.8,14.2 76.7,14.2 76.7,14.1C76.7,14 76.6,14 76.5,14L76.4,13.9C76.3,13.9 76.3,13.9 76.2,13.8L23.9,13.8C23.8,13.8 23.8,13.8 23.7,13.9L23.6,14C23.5,14 23.5,14.1 23.4,14.1C23.4,14.1 23.3,14.2 23.3,14.3C23.3,14.4 23.2,14.4 23.2,14.5L23.2,84C23.1,84.5 23.5,85 24.1,85ZM25.1,83L25.1,18.7L28.6,25.2C28.8,25.5 29.1,25.7 29.5,25.7L70.5,25.7C70.9,25.7 71.2,25.5 71.4,25.2L74.9,18.7L74.9,83L25.1,83ZM25.8,15.8L74.2,15.8L69.9,23.7L30.1,23.7L25.8,15.8Z" style="fill:rgb(238,194,120);fill-rule:nonzero;"/>
    </g>
    <g transform="matrix(1,0,0,1,-23.1847,-13.8)">
        <path d="M51.2,54.4C52.5,52.7 55.8,47.9 55.8,44.9C55.8,41.7 53.2,39.1 50,39.1C46.8,39.1 44.2,41.7 44.2,44.9C44.2,48.1 47.5,52.7 48.8,54.4L41.5,64.3C41.4,64.5 41.3,64.7 41.3,64.9C41.3,65.2 41.4,65.5 41.7,65.7C41.9,65.8 42.1,65.9 42.3,65.9C42.6,65.9 42.9,65.8 43.1,65.5L50,56.1L56.9,65.5C57.1,65.8 57.4,65.9 57.7,65.9C57.9,65.9 58.1,65.8 58.3,65.7C58.6,65.5 58.7,65.2 58.7,64.9C58.7,64.7 58.6,64.5 58.5,64.3L51.2,54.4ZM50,41.1C52.1,41.1 53.8,42.8 53.8,44.9C53.8,46.9 51.5,50.6 50,52.7C48.5,50.6 46.2,47 46.2,44.9C46.2,42.8 47.9,41.1 50,41.1Z" style="fill:rgb(238,194,120);fill-rule:nonzero;"/>
    </g>
</svg>
