<?xml version="1.0" encoding="UTF-8" standalone="no"?><!DOCTYPE svg PUBLIC "-//W3C//DTD SVG 1.1//EN" "http://www.w3.org/Graphics/SVG/1.1/DTD/svg11.dtd"><svg width="100%" height="100%" viewBox="0 0 1855 760" version="1.1" xmlns="http://www.w3.org/2000/svg" xmlns:xlink="http://www.w3.org/1999/xlink" xml:space="preserve" xmlns:serif="http://www.serif.com/" style="fill-rule:evenodd;clip-rule:evenodd;stroke-linejoin:round;stroke-miterlimit:2;"><path d="M275.395,335.347c0,-78.771 -8.366,-106.654 -38.341,-106.654c-29.975,0 -38.338,27.883 -38.338,106.654c0,80.862 8.363,105.954 38.338,105.954c29.975,0 38.341,-25.092 38.341,-105.954Zm-130.358,263.496c-11.846,8.366 -16.725,20.212 -16.725,38.337c0,39.038 35.55,64.134 110.137,64.134c65.525,0 115.717,-27.884 115.717,-62.042c0,-19.517 -12.55,-32.063 -36.25,-32.758l-120.596,-1.396c-20.212,-0.696 -36.946,-2.792 -52.283,-6.275Zm302.533,-361.088l-100.379,0.696c35.554,20.917 55.767,53.675 55.767,96.896c0,76.679 -66.221,121.987 -165.904,121.987c-27.188,0 -52.98,-4.179 -75.98,-11.85l-23.004,18.825c0,20.213 20.213,32.067 55.767,32.067l115.017,0.692c91.316,0.7 138.716,34.154 138.716,93.412c0,78.767 -106.65,126.867 -220.971,126.867c-127.566,0 -184.725,-24.396 -184.725,-69.708c0,-27.188 24.396,-49.492 75.28,-57.859c-44.613,-20.216 -59.946,-57.158 -59.946,-89.925l85.741,-61.341c-43.22,-20.213 -71.8,-55.767 -71.8,-103.167c0,-77.375 66.225,-122.688 165.905,-122.688c32.762,0 61.345,4.884 85.741,13.942l112.229,-82.254l6.971,0l5.575,86.437l0,6.971Z" style="fill:#eec278;fill-rule:nonzero;"/><path d="M576.355,191.749l-74.587,-75.283l74.587,-74.592l75.288,74.592l-75.288,75.283Zm101.079,377.817l0,6.971l-202.154,0l0,-6.971l34.854,-29.279l0,-281.617l-37.641,-30.675l0,-6.971l170.087,0l0,319.263l34.854,29.279Z" style="fill:#eec278;fill-rule:nonzero;"/><path d="M826.807,376.474l92.712,0l0,-14.637c-0.7,-96.896 -11.154,-132.446 -41.829,-132.446c-29.271,0 -50.883,36.246 -50.883,147.083Zm220.279,85.046c-25.096,71.104 -78.075,123.379 -174.271,123.379c-110.837,0 -186.816,-73.191 -186.816,-183.333c0,-125.471 78.07,-188.904 191.691,-188.904c97.596,0 168.696,50.883 168.696,161.025l0,19.521l-218.883,0c3.483,90.616 40.433,134.537 96.196,134.537c57.858,0 87.137,-32.071 108.745,-72.504l14.642,6.279Z" style="fill:#eec278;fill-rule:nonzero;"/><path d="M1329.22,509.617l0,-251.646c-7.671,-17.425 -22.309,-28.579 -41.125,-28.579c-32.763,0 -55.771,31.366 -55.771,160.329c0,105.254 23.008,140.112 54.375,140.112c19.517,0 32.762,-7.666 42.521,-20.216Zm167.3,192.395l0,6.971l-223.067,0l0,-6.971l55.767,-29.279l0,-144.296c-20.217,34.159 -53.679,56.463 -100.379,56.463c-75.284,0 -135.238,-49.492 -135.238,-179.15c0,-135.233 87.833,-193.092 189.608,-193.092c50.888,0 112.234,6.275 178.455,22.309l0,437.766l34.854,29.279Z" style="fill:#eec278;fill-rule:nonzero;"/><path d="M1672.95,231.483c-9.763,-2.091 -15.338,-2.787 -25.792,-2.787c-22.304,0 -46.704,16.033 -46.704,45.308c0,20.217 8.362,36.246 38.337,46.008l69.709,23.7c65.525,21.609 104.566,52.28 104.566,113.621c0,82.254 -78.775,127.567 -157.546,127.567c-48.795,0 -94.804,-7.667 -147.079,-18.821l2.092,-135.233l6.962,0l106.659,134.537c11.854,2.788 18.825,3.488 29.275,3.488c31.371,0 52.283,-20.917 52.283,-52.284c0,-25.1 -12.546,-43.912 -39.733,-53.675l-69.704,-25.791c-68.321,-25.096 -93.413,-64.829 -93.413,-115.713c0,-71.104 65.525,-108.75 143.6,-108.75c47.404,0 89.925,5.579 143.596,15.338l-4.179,121.291l-6.975,0l-105.954,-117.804Z" style="fill:#eec278;fill-rule:nonzero;"/></svg>